<svg xmlns="http://www.w3.org/2000/svg" viewBox="0 0 640 800">
  <defs>
    <linearGradient id="sky-b01" x1="0" y1="0" x2="0" y2="1">
      <stop offset="0%" stop-color="#182420"/>
      <stop offset="100%" stop-color="#0F1714"/>
    </linearGradient>
    <radialGradient id="glow-b01" cx="50%" cy="50%" r="50%">
      <stop offset="0%" stop-color="#E6C766" stop-opacity="0.95"/>
      <stop offset="60%" stop-color="#C9A227" stop-opacity="0.5"/>
      <stop offset="100%" stop-color="#C9A227" stop-opacity="0"/>
    </radialGradient>
    <linearGradient id="water-b01" x1="0" y1="0" x2="0" y2="1">
      <stop offset="0%" stop-color="#28433A" stop-opacity="0.15"/>
      <stop offset="100%" stop-color="#0F1714" stop-opacity="0.9"/>
    </linearGradient>
    <filter id="grain-b01">
      <feTurbulence type="fractalNoise" baseFrequency="0.9" numOctaves="2" result="n"/>
      <feColorMatrix in="n" type="matrix" values="0 0 0 0 0  0 0 0 0 0  0 0 0 0 0  0 0 0 0.05 0"/>
    </filter>
  </defs><rect width="640" height="800" fill="#0F1714"/>
    <rect x="0" y="0" width="30" height="800" fill="#182420"/>
    <rect x="30" y="0" width="4" height="800" fill="#C9A227" opacity="0.6"/>
    <rect x="40" y="40" width="560" height="720" fill="none" stroke="#C9A227" stroke-width="2"/>
    <rect x="54" y="54" width="532" height="692" fill="none" stroke="#C9A227" stroke-width="1" opacity="0.5"/>
    <text x="320.0" y="110" text-anchor="middle" fill="#EDE3CC" font-family="Georgia, 'Times New Roman', serif" font-weight="700" font-size="34" letter-spacing="1">DẾ MÈN</text><text x="320.0" y="154" text-anchor="middle" fill="#EDE3CC" font-family="Georgia, 'Times New Roman', serif" font-weight="700" font-size="34" letter-spacing="1">PHIÊU LƯU KÝ</text><line x1="100" y1="180" x2="540" y2="180" stroke="#C9A227" stroke-width="1.5"/>
    <ellipse cx="320.0" cy="400.0" rx="70" ry="30" fill="#3E5D50" opacity="0.9"/>
    <ellipse cx="262.0" cy="400.0" rx="22" ry="18" fill="#3E5D50"/>
    <line x1="250.0" y1="390.0" x2="225.0" y2="374.0" stroke="#C9A227" stroke-width="2"/>
    <line x1="250.0" y1="396.0" x2="222.0" y2="394.0" stroke="#C9A227" stroke-width="2"/>
    <line x1="290.0" y1="422.0" x2="282.0" y2="450.0" stroke="#3E5D50" stroke-width="4"/><line x1="312.0" y1="422.0" x2="304.0" y2="450.0" stroke="#3E5D50" stroke-width="4"/><line x1="334.0" y1="422.0" x2="326.0" y2="450.0" stroke="#3E5D50" stroke-width="4"/><line x1="356.0" y1="422.0" x2="348.0" y2="450.0" stroke="#3E5D50" stroke-width="4"/><line x1="378.0" y1="422.0" x2="370.0" y2="450.0" stroke="#3E5D50" stroke-width="4"/><line x1="400.0" y1="422.0" x2="392.0" y2="450.0" stroke="#3E5D50" stroke-width="4"/>
    <path d="M160.0,470.0 Q320.0,440.0 480.0,470.0" stroke="#C9A227" stroke-width="1.5" fill="none" opacity="0.6"/>
    <text x="320.0" y="690" text-anchor="middle" fill="#E6C766" font-family="Georgia, serif" font-size="22" letter-spacing="2">TÔ HOÀI</text><text x="320.0" y="718" text-anchor="middle" fill="#EDE3CC" opacity="0.6" font-family="'Be Vietnam Pro', sans-serif" font-size="13" letter-spacing="3">VĂN HỌC THIẾU NHI</text><rect width="640" height="800" fill="url(#grain-b01)" opacity="0.5"/></svg>