<svg xmlns="http://www.w3.org/2000/svg" viewBox="0 0 640 800">
  <defs>
    <linearGradient id="sky-b07" x1="0" y1="0" x2="0" y2="1">
      <stop offset="0%" stop-color="#271A11"/>
      <stop offset="100%" stop-color="#1B120C"/>
    </linearGradient>
    <radialGradient id="glow-b07" cx="50%" cy="50%" r="50%">
      <stop offset="0%" stop-color="#EFCE7B" stop-opacity="0.95"/>
      <stop offset="60%" stop-color="#D9AE3E" stop-opacity="0.5"/>
      <stop offset="100%" stop-color="#D9AE3E" stop-opacity="0"/>
    </radialGradient>
    <linearGradient id="water-b07" x1="0" y1="0" x2="0" y2="1">
      <stop offset="0%" stop-color="#8A3A20" stop-opacity="0.15"/>
      <stop offset="100%" stop-color="#1B120C" stop-opacity="0.9"/>
    </linearGradient>
    <filter id="grain-b07">
      <feTurbulence type="fractalNoise" baseFrequency="0.9" numOctaves="2" result="n"/>
      <feColorMatrix in="n" type="matrix" values="0 0 0 0 0  0 0 0 0 0  0 0 0 0 0  0 0 0 0.05 0"/>
    </filter>
  </defs><rect width="640" height="800" fill="#1B120C"/>
    <rect x="0" y="0" width="30" height="800" fill="#271A11"/>
    <rect x="30" y="0" width="4" height="800" fill="#D9AE3E" opacity="0.6"/>
    <rect x="40" y="40" width="560" height="720" fill="none" stroke="#D9AE3E" stroke-width="2"/>
    <rect x="54" y="54" width="532" height="692" fill="none" stroke="#D9AE3E" stroke-width="1" opacity="0.5"/>
    <text x="320.0" y="110" text-anchor="middle" fill="#F2E8D5" font-family="Georgia, 'Times New Roman', serif" font-weight="700" font-size="34" letter-spacing="1">TUỔI THƠ</text><text x="320.0" y="154" text-anchor="middle" fill="#F2E8D5" font-family="Georgia, 'Times New Roman', serif" font-weight="700" font-size="34" letter-spacing="1">DỮ DỘI</text><line x1="100" y1="180" x2="540" y2="180" stroke="#D9AE3E" stroke-width="1.5"/><polygon points="160.0,474.0 160,442 224,412 288,454 352,435 416,418 480,395 480.0,474.0" fill="#B5502F" opacity="0.5"/><polygon points="160.0,474.0 160,429 224,449 288,483 352,436 416,424 480,434 480.0,474.0" fill="#8A3A20" opacity="0.8"/><rect x="318.0" y="354.0" width="4" height="60" fill="#D9AE3E"/><path d="M322.0,354.0 L360.0,366.0 L322.0,378.0 Z" fill="#B5502F"/><text x="320.0" y="690" text-anchor="middle" fill="#EFCE7B" font-family="Georgia, serif" font-size="22" letter-spacing="2">PHÙNG QUÁN</text><text x="320.0" y="718" text-anchor="middle" fill="#F2E8D5" opacity="0.6" font-family="'Be Vietnam Pro', sans-serif" font-size="13" letter-spacing="3">VĂN HỌC HIỆN THỰC</text><rect width="640" height="800" fill="url(#grain-b07)" opacity="0.5"/></svg>