<svg xmlns="http://www.w3.org/2000/svg" viewBox="0 0 640 800">
  <defs>
    <linearGradient id="sky-b06" x1="0" y1="0" x2="0" y2="1">
      <stop offset="0%" stop-color="#1F1B16"/>
      <stop offset="100%" stop-color="#15120F"/>
    </linearGradient>
    <radialGradient id="glow-b06" cx="50%" cy="50%" r="50%">
      <stop offset="0%" stop-color="#E6C766" stop-opacity="0.95"/>
      <stop offset="60%" stop-color="#C9A227" stop-opacity="0.5"/>
      <stop offset="100%" stop-color="#C9A227" stop-opacity="0"/>
    </radialGradient>
    <linearGradient id="water-b06" x1="0" y1="0" x2="0" y2="1">
      <stop offset="0%" stop-color="#7C231C" stop-opacity="0.15"/>
      <stop offset="100%" stop-color="#15120F" stop-opacity="0.9"/>
    </linearGradient>
    <filter id="grain-b06">
      <feTurbulence type="fractalNoise" baseFrequency="0.9" numOctaves="2" result="n"/>
      <feColorMatrix in="n" type="matrix" values="0 0 0 0 0  0 0 0 0 0  0 0 0 0 0  0 0 0 0.05 0"/>
    </filter>
  </defs><rect width="640" height="800" fill="#15120F"/>
    <rect x="0" y="0" width="30" height="800" fill="#1F1B16"/>
    <rect x="30" y="0" width="4" height="800" fill="#C9A227" opacity="0.6"/>
    <rect x="40" y="40" width="560" height="720" fill="none" stroke="#C9A227" stroke-width="2"/>
    <rect x="54" y="54" width="532" height="692" fill="none" stroke="#C9A227" stroke-width="1" opacity="0.5"/>
    <text x="320.0" y="110" text-anchor="middle" fill="#EDE3CC" font-family="Georgia, 'Times New Roman', serif" font-weight="700" font-size="34" letter-spacing="1">VIỆT NAM</text><text x="320.0" y="154" text-anchor="middle" fill="#EDE3CC" font-family="Georgia, 'Times New Roman', serif" font-weight="700" font-size="34" letter-spacing="1">SỬ LƯỢC</text><line x1="100" y1="180" x2="540" y2="180" stroke="#C9A227" stroke-width="1.5"/>
    <circle cx="320.0" cy="424.0" r="70" fill="none" stroke="#C9A227" stroke-width="2"/>
    <circle cx="320.0" cy="424.0" r="50" fill="none" stroke="#E6C766" stroke-width="1.5"/>
    <path d="M290.0,434.0 Q320.0,384.0 350.0,434.0 Q330.0,454.0 320.0,442.0 Q310.0,454.0 290.0,434.0 Z" fill="#A8332A"/>
    <text x="320.0" y="690" text-anchor="middle" fill="#E6C766" font-family="Georgia, serif" font-size="22" letter-spacing="2">TRẦN TRỌNG KIM</text><text x="320.0" y="718" text-anchor="middle" fill="#EDE3CC" opacity="0.6" font-family="'Be Vietnam Pro', sans-serif" font-size="13" letter-spacing="3">LỊCH SỬ</text><rect width="640" height="800" fill="url(#grain-b06)" opacity="0.5"/></svg>