<svg xmlns="http://www.w3.org/2000/svg" viewBox="0 0 640 800">
  <defs>
    <linearGradient id="sky-b02" x1="0" y1="0" x2="0" y2="1">
      <stop offset="0%" stop-color="#1F1B16"/>
      <stop offset="100%" stop-color="#15120F"/>
    </linearGradient>
    <radialGradient id="glow-b02" cx="50%" cy="50%" r="50%">
      <stop offset="0%" stop-color="#E6C766" stop-opacity="0.95"/>
      <stop offset="60%" stop-color="#C9A227" stop-opacity="0.5"/>
      <stop offset="100%" stop-color="#C9A227" stop-opacity="0"/>
    </radialGradient>
    <linearGradient id="water-b02" x1="0" y1="0" x2="0" y2="1">
      <stop offset="0%" stop-color="#7C231C" stop-opacity="0.15"/>
      <stop offset="100%" stop-color="#15120F" stop-opacity="0.9"/>
    </linearGradient>
    <filter id="grain-b02">
      <feTurbulence type="fractalNoise" baseFrequency="0.9" numOctaves="2" result="n"/>
      <feColorMatrix in="n" type="matrix" values="0 0 0 0 0  0 0 0 0 0  0 0 0 0 0  0 0 0 0.05 0"/>
    </filter>
  </defs><rect width="640" height="800" fill="#15120F"/>
    <rect x="0" y="0" width="30" height="800" fill="#1F1B16"/>
    <rect x="30" y="0" width="4" height="800" fill="#C9A227" opacity="0.6"/>
    <rect x="40" y="40" width="560" height="720" fill="none" stroke="#C9A227" stroke-width="2"/>
    <rect x="54" y="54" width="532" height="692" fill="none" stroke="#C9A227" stroke-width="1" opacity="0.5"/>
    <text x="320.0" y="110" text-anchor="middle" fill="#EDE3CC" font-family="Georgia, 'Times New Roman', serif" font-weight="700" font-size="34" letter-spacing="1">TRUYỆN KIỀU</text><line x1="100" y1="136" x2="540" y2="136" stroke="#C9A227" stroke-width="1.5"/><path d="M180.0,506.0 C270.0,466.0 270.0,366.0 360.0,326.0" stroke="#A8332A" stroke-width="4" fill="none" opacity="0.9"/><circle cx="226" cy="456" r="10" fill="#C9A227" opacity="0.92"/><circle cx="226" cy="456" r="3" fill="#C9A227"/><circle cx="215" cy="478" r="10" fill="#C9A227" opacity="0.92"/><circle cx="215" cy="478" r="3" fill="#C9A227"/><circle cx="296" cy="399" r="13" fill="#C9A227" opacity="0.92"/><circle cx="296" cy="399" r="4" fill="#C9A227"/><circle cx="271" cy="416" r="7" fill="#C9A227" opacity="0.92"/><circle cx="271" cy="416" r="2" fill="#C9A227"/><circle cx="250" cy="413" r="12" fill="#C9A227" opacity="0.92"/><circle cx="250" cy="413" r="4" fill="#C9A227"/><circle cx="210" cy="481" r="10" fill="#C9A227" opacity="0.92"/><circle cx="210" cy="481" r="4" fill="#C9A227"/><circle cx="239" cy="449" r="12" fill="#C9A227" opacity="0.92"/><circle cx="239" cy="449" r="4" fill="#C9A227"/><circle cx="201" cy="480" r="9" fill="#C9A227" opacity="0.92"/><circle cx="201" cy="480" r="3" fill="#C9A227"/><circle cx="319" cy="369" r="12" fill="#C9A227" opacity="0.92"/><circle cx="319" cy="369" r="4" fill="#C9A227"/><circle cx="343" cy="345" r="10" fill="#C9A227" opacity="0.92"/><circle cx="343" cy="345" r="4" fill="#C9A227"/><circle cx="278" cy="412" r="10" fill="#C9A227" opacity="0.92"/><circle cx="278" cy="412" r="4" fill="#C9A227"/><circle cx="278" cy="426" r="12" fill="#C9A227" opacity="0.92"/><circle cx="278" cy="426" r="4" fill="#C9A227"/><path d="M310.0,376.0 C280.0,406.0 278.0,486.0 314.0,556.0" stroke="#E6C766" stroke-width="2" fill="none" opacity="0.8"/><text x="320.0" y="690" text-anchor="middle" fill="#E6C766" font-family="Georgia, serif" font-size="22" letter-spacing="2">NGUYỄN DU</text><text x="320.0" y="718" text-anchor="middle" fill="#EDE3CC" opacity="0.6" font-family="'Be Vietnam Pro', sans-serif" font-size="13" letter-spacing="3">VĂN HỌC CỔ ĐIỂN</text><rect width="640" height="800" fill="url(#grain-b02)" opacity="0.5"/></svg>