<svg xmlns="http://www.w3.org/2000/svg" viewBox="0 0 640 800">
  <defs>
    <linearGradient id="sky-b03" x1="0" y1="0" x2="0" y2="1">
      <stop offset="0%" stop-color="#271A11"/>
      <stop offset="100%" stop-color="#1B120C"/>
    </linearGradient>
    <radialGradient id="glow-b03" cx="50%" cy="50%" r="50%">
      <stop offset="0%" stop-color="#EFCE7B" stop-opacity="0.95"/>
      <stop offset="60%" stop-color="#D9AE3E" stop-opacity="0.5"/>
      <stop offset="100%" stop-color="#D9AE3E" stop-opacity="0"/>
    </radialGradient>
    <linearGradient id="water-b03" x1="0" y1="0" x2="0" y2="1">
      <stop offset="0%" stop-color="#8A3A20" stop-opacity="0.15"/>
      <stop offset="100%" stop-color="#1B120C" stop-opacity="0.9"/>
    </linearGradient>
    <filter id="grain-b03">
      <feTurbulence type="fractalNoise" baseFrequency="0.9" numOctaves="2" result="n"/>
      <feColorMatrix in="n" type="matrix" values="0 0 0 0 0  0 0 0 0 0  0 0 0 0 0  0 0 0 0.05 0"/>
    </filter>
  </defs><rect width="640" height="800" fill="#1B120C"/>
    <rect x="0" y="0" width="30" height="800" fill="#271A11"/>
    <rect x="30" y="0" width="4" height="800" fill="#D9AE3E" opacity="0.6"/>
    <rect x="40" y="40" width="560" height="720" fill="none" stroke="#D9AE3E" stroke-width="2"/>
    <rect x="54" y="54" width="532" height="692" fill="none" stroke="#D9AE3E" stroke-width="1" opacity="0.5"/>
    <text x="320.0" y="110" text-anchor="middle" fill="#F2E8D5" font-family="Georgia, 'Times New Roman', serif" font-weight="700" font-size="34" letter-spacing="1">SỐ ĐỎ</text><line x1="100" y1="136" x2="540" y2="136" stroke="#D9AE3E" stroke-width="1.5"/>
    <rect x="230.0" y="414.0" width="180" height="90" fill="#B5502F" opacity="0.85"/>
    <rect x="250.0" y="434.0" width="20" height="35" fill="#1B120C" opacity="0.7"/><rect x="290.0" y="434.0" width="20" height="35" fill="#1B120C" opacity="0.7"/><rect x="330.0" y="434.0" width="20" height="35" fill="#1B120C" opacity="0.7"/><rect x="370.0" y="434.0" width="20" height="35" fill="#1B120C" opacity="0.7"/><rect x="410.0" y="434.0" width="20" height="35" fill="#1B120C" opacity="0.7"/>
    <path d="M220.0,414.0 L320.0,364.0 L420.0,414.0" fill="none" stroke="#D9AE3E" stroke-width="3"/>
    <circle cx="320.0" cy="354.0" r="8" fill="#D9AE3E"/>
    <text x="320.0" y="690" text-anchor="middle" fill="#EFCE7B" font-family="Georgia, serif" font-size="22" letter-spacing="2">VŨ TRỌNG PHỤNG</text><text x="320.0" y="718" text-anchor="middle" fill="#F2E8D5" opacity="0.6" font-family="'Be Vietnam Pro', sans-serif" font-size="13" letter-spacing="3">VĂN HỌC HIỆN THỰC</text><rect width="640" height="800" fill="url(#grain-b03)" opacity="0.5"/></svg>