<svg xmlns="http://www.w3.org/2000/svg" viewBox="0 0 640 800">
  <defs>
    <linearGradient id="sky-b04" x1="0" y1="0" x2="0" y2="1">
      <stop offset="0%" stop-color="#182230"/>
      <stop offset="100%" stop-color="#10151C"/>
    </linearGradient>
    <radialGradient id="glow-b04" cx="50%" cy="50%" r="50%">
      <stop offset="0%" stop-color="#E6C766" stop-opacity="0.95"/>
      <stop offset="60%" stop-color="#C9A227" stop-opacity="0.5"/>
      <stop offset="100%" stop-color="#C9A227" stop-opacity="0"/>
    </radialGradient>
    <linearGradient id="water-b04" x1="0" y1="0" x2="0" y2="1">
      <stop offset="0%" stop-color="#213548" stop-opacity="0.15"/>
      <stop offset="100%" stop-color="#10151C" stop-opacity="0.9"/>
    </linearGradient>
    <filter id="grain-b04">
      <feTurbulence type="fractalNoise" baseFrequency="0.9" numOctaves="2" result="n"/>
      <feColorMatrix in="n" type="matrix" values="0 0 0 0 0  0 0 0 0 0  0 0 0 0 0  0 0 0 0.05 0"/>
    </filter>
  </defs><rect width="640" height="800" fill="#10151C"/>
    <rect x="0" y="0" width="30" height="800" fill="#182230"/>
    <rect x="30" y="0" width="4" height="800" fill="#C9A227" opacity="0.6"/>
    <rect x="40" y="40" width="560" height="720" fill="none" stroke="#C9A227" stroke-width="2"/>
    <rect x="54" y="54" width="532" height="692" fill="none" stroke="#C9A227" stroke-width="1" opacity="0.5"/>
    <text x="320.0" y="110" text-anchor="middle" fill="#EDE3CC" font-family="Georgia, 'Times New Roman', serif" font-weight="700" font-size="34" letter-spacing="1">NHẬT KÝ</text><text x="320.0" y="154" text-anchor="middle" fill="#EDE3CC" font-family="Georgia, 'Times New Roman', serif" font-weight="700" font-size="34" letter-spacing="1">TRONG TÙ</text><line x1="100" y1="180" x2="540" y2="180" stroke="#C9A227" stroke-width="1.5"/><line x1="230.0" y1="354.0" x2="230.0" y2="494.0" stroke="#182230" stroke-width="6"/><line x1="260.0" y1="354.0" x2="260.0" y2="494.0" stroke="#182230" stroke-width="6"/><line x1="290.0" y1="354.0" x2="290.0" y2="494.0" stroke="#182230" stroke-width="6"/><line x1="320.0" y1="354.0" x2="320.0" y2="494.0" stroke="#182230" stroke-width="6"/><line x1="350.0" y1="354.0" x2="350.0" y2="494.0" stroke="#182230" stroke-width="6"/><line x1="380.0" y1="354.0" x2="380.0" y2="494.0" stroke="#182230" stroke-width="6"/><line x1="410.0" y1="354.0" x2="410.0" y2="494.0" stroke="#182230" stroke-width="6"/><path d="M320.0,414.0 l7,-22 l7,22 l-22,-14 h30 z" fill="#E6C766"/><text x="320.0" y="690" text-anchor="middle" fill="#E6C766" font-family="Georgia, serif" font-size="22" letter-spacing="2">HỒ CHÍ MINH</text><text x="320.0" y="718" text-anchor="middle" fill="#EDE3CC" opacity="0.6" font-family="'Be Vietnam Pro', sans-serif" font-size="13" letter-spacing="3">HỒI KÝ</text><rect width="640" height="800" fill="url(#grain-b04)" opacity="0.5"/></svg>