<svg xmlns="http://www.w3.org/2000/svg" viewBox="0 0 640 800">
  <defs>
    <linearGradient id="sky-b05" x1="0" y1="0" x2="0" y2="1">
      <stop offset="0%" stop-color="#182420"/>
      <stop offset="100%" stop-color="#0F1714"/>
    </linearGradient>
    <radialGradient id="glow-b05" cx="50%" cy="50%" r="50%">
      <stop offset="0%" stop-color="#E6C766" stop-opacity="0.95"/>
      <stop offset="60%" stop-color="#C9A227" stop-opacity="0.5"/>
      <stop offset="100%" stop-color="#C9A227" stop-opacity="0"/>
    </radialGradient>
    <linearGradient id="water-b05" x1="0" y1="0" x2="0" y2="1">
      <stop offset="0%" stop-color="#28433A" stop-opacity="0.15"/>
      <stop offset="100%" stop-color="#0F1714" stop-opacity="0.9"/>
    </linearGradient>
    <filter id="grain-b05">
      <feTurbulence type="fractalNoise" baseFrequency="0.9" numOctaves="2" result="n"/>
      <feColorMatrix in="n" type="matrix" values="0 0 0 0 0  0 0 0 0 0  0 0 0 0 0  0 0 0 0.05 0"/>
    </filter>
  </defs><rect width="640" height="800" fill="#0F1714"/>
    <rect x="0" y="0" width="30" height="800" fill="#182420"/>
    <rect x="30" y="0" width="4" height="800" fill="#C9A227" opacity="0.6"/>
    <rect x="40" y="40" width="560" height="720" fill="none" stroke="#C9A227" stroke-width="2"/>
    <rect x="54" y="54" width="532" height="692" fill="none" stroke="#C9A227" stroke-width="1" opacity="0.5"/>
    <text x="320.0" y="110" text-anchor="middle" fill="#EDE3CC" font-family="Georgia, 'Times New Roman', serif" font-weight="700" font-size="34" letter-spacing="1">ĐẤT RỪNG</text><text x="320.0" y="154" text-anchor="middle" fill="#EDE3CC" font-family="Georgia, 'Times New Roman', serif" font-weight="700" font-size="34" letter-spacing="1">PHƯƠNG NAM</text><line x1="100" y1="180" x2="540" y2="180" stroke="#C9A227" stroke-width="1.5"/><polygon points="160.0,464.0 160,436 224,409 288,447 352,430 416,415 480,394 480.0,464.0" fill="#3E5D50" opacity="0.5"/><polygon points="160.0,464.0 160,423 224,441 288,472 352,430 416,419 480,428 480.0,464.0" fill="#28433A" opacity="0.8"/><path d="M294.0,479.0 Q320.0,488.1 346.0,479.0 L338.2,475.0 L301.8,475.0 Z" fill="#C9A227"/>
      <line x1="320.0" y1="479.0" x2="320.0" y2="455.6" stroke="#C9A227" stroke-width="2"/>
      <path d="M320.0,455.6 L333.0,464.7 L320.0,471.2 Z" fill="#E6C766" opacity="0.85"/><text x="320.0" y="690" text-anchor="middle" fill="#E6C766" font-family="Georgia, serif" font-size="22" letter-spacing="2">ĐOÀN GIỎI</text><text x="320.0" y="718" text-anchor="middle" fill="#EDE3CC" opacity="0.6" font-family="'Be Vietnam Pro', sans-serif" font-size="13" letter-spacing="3">VĂN HỌC THIẾU NHI</text><rect width="640" height="800" fill="url(#grain-b05)" opacity="0.5"/></svg>