<svg xmlns="http://www.w3.org/2000/svg" viewBox="0 0 640 800">
  <rect width="640" height="800" fill="#F2E8D5"/>
  <rect x="26" y="26" width="588" height="748" fill="#1B120C"/>
  <rect x="34" y="34" width="572" height="732" fill="url(#sky-p03)"/>
  <rect x="54" y="544.96" width="163" height="60" fill="#271A11" stroke="#D9AE3E" stroke-width="1"/><path d="M48,544.96 L136,520.96 L223,544.96 Z" fill="#B5502F" opacity="0.9"/><rect x="231" y="544.96" width="163" height="60" fill="#271A11" stroke="#D9AE3E" stroke-width="1"/><path d="M225,544.96 L313,520.96 L401,544.96 Z" fill="#B5502F" opacity="0.9"/><rect x="409" y="544.96" width="163" height="60" fill="#271A11" stroke="#D9AE3E" stroke-width="1"/><path d="M403,544.96 L490,520.96 L578,544.96 Z" fill="#B5502F" opacity="0.9"/><rect x="586" y="544.96" width="163" height="60" fill="#271A11" stroke="#D9AE3E" stroke-width="1"/><path d="M580,544.96 L668,520.96 L755,544.96 Z" fill="#B5502F" opacity="0.9"/><g>
      <line x1="64.0" y1="213.36" x2="64.0" y2="222.96" stroke="#D9AE3E" stroke-width="1.4"/>
      <ellipse cx="64.0" cy="238.96" rx="9.92" ry="16" fill="#B5502F" opacity="0.92"/>
      <line x1="54.08" y1="232.56" x2="73.92" y2="232.56" stroke="#D9AE3E" stroke-width="1"/>
      <line x1="54.08" y1="245.36" x2="73.92" y2="245.36" stroke="#D9AE3E" stroke-width="1"/>
      <line x1="64.0" y1="254.96" x2="64.0" y2="268.96000000000004" stroke="#D9AE3E" stroke-width="1.4"/>
    </g><g>
      <line x1="192.0" y1="223.36" x2="192.0" y2="232.96" stroke="#D9AE3E" stroke-width="1.4"/>
      <ellipse cx="192.0" cy="248.96" rx="9.92" ry="16" fill="#B5502F" opacity="0.92"/>
      <line x1="182.08" y1="242.56" x2="201.92" y2="242.56" stroke="#D9AE3E" stroke-width="1"/>
      <line x1="182.08" y1="255.36" x2="201.92" y2="255.36" stroke="#D9AE3E" stroke-width="1"/>
      <line x1="192.0" y1="264.96000000000004" x2="192.0" y2="278.96000000000004" stroke="#D9AE3E" stroke-width="1.4"/>
    </g><g>
      <line x1="320.0" y1="213.36" x2="320.0" y2="222.96" stroke="#D9AE3E" stroke-width="1.4"/>
      <ellipse cx="320.0" cy="238.96" rx="9.92" ry="16" fill="#B5502F" opacity="0.92"/>
      <line x1="310.08" y1="232.56" x2="329.92" y2="232.56" stroke="#D9AE3E" stroke-width="1"/>
      <line x1="310.08" y1="245.36" x2="329.92" y2="245.36" stroke="#D9AE3E" stroke-width="1"/>
      <line x1="320.0" y1="254.96" x2="320.0" y2="268.96000000000004" stroke="#D9AE3E" stroke-width="1.4"/>
    </g><g>
      <line x1="448.0" y1="223.36" x2="448.0" y2="232.96" stroke="#D9AE3E" stroke-width="1.4"/>
      <ellipse cx="448.0" cy="248.96" rx="9.92" ry="16" fill="#B5502F" opacity="0.92"/>
      <line x1="438.08" y1="242.56" x2="457.92" y2="242.56" stroke="#D9AE3E" stroke-width="1"/>
      <line x1="438.08" y1="255.36" x2="457.92" y2="255.36" stroke="#D9AE3E" stroke-width="1"/>
      <line x1="448.0" y1="264.96000000000004" x2="448.0" y2="278.96000000000004" stroke="#D9AE3E" stroke-width="1.4"/>
    </g><g>
      <line x1="576.0" y1="213.36" x2="576.0" y2="222.96" stroke="#D9AE3E" stroke-width="1.4"/>
      <ellipse cx="576.0" cy="238.96" rx="9.92" ry="16" fill="#B5502F" opacity="0.92"/>
      <line x1="566.08" y1="232.56" x2="585.92" y2="232.56" stroke="#D9AE3E" stroke-width="1"/>
      <line x1="566.08" y1="245.36" x2="585.92" y2="245.36" stroke="#D9AE3E" stroke-width="1"/>
      <line x1="576.0" y1="254.96" x2="576.0" y2="268.96000000000004" stroke="#D9AE3E" stroke-width="1.4"/>
    </g><path d="M79.75999999999999,70.6 C142.68,30.599999999999994 142.68,235.04 205.6,195.04" stroke="#B5502F" stroke-width="4" fill="none" opacity="0.9"/><circle cx="111" cy="115" r="7" fill="#D9AE3E" opacity="0.92"/><circle cx="111" cy="115" r="3" fill="#D9AE3E"/><circle cx="143" cy="125" r="10" fill="#D9AE3E" opacity="0.92"/><circle cx="143" cy="125" r="4" fill="#D9AE3E"/><circle cx="83" cy="63" r="8" fill="#D9AE3E" opacity="0.92"/><circle cx="83" cy="63" r="3" fill="#D9AE3E"/><circle cx="142" cy="113" r="8" fill="#D9AE3E" opacity="0.92"/><circle cx="142" cy="113" r="3" fill="#D9AE3E"/><circle cx="171" cy="151" r="9" fill="#D9AE3E" opacity="0.92"/><circle cx="171" cy="151" r="3" fill="#D9AE3E"/><circle cx="190" cy="202" r="9" fill="#D9AE3E" opacity="0.92"/><circle cx="190" cy="202" r="3" fill="#D9AE3E"/><circle cx="87" cy="83" r="12" fill="#D9AE3E" opacity="0.92"/><circle cx="87" cy="83" r="4" fill="#D9AE3E"/><circle cx="105" cy="97" r="9" fill="#D9AE3E" opacity="0.92"/><circle cx="105" cy="97" r="3" fill="#D9AE3E"/><circle cx="136" cy="126" r="8" fill="#D9AE3E" opacity="0.92"/><circle cx="136" cy="126" r="3" fill="#D9AE3E"/><circle cx="163" cy="150" r="11" fill="#D9AE3E" opacity="0.92"/><circle cx="163" cy="150" r="4" fill="#D9AE3E"/><circle cx="131" cy="135" r="11" fill="#D9AE3E" opacity="0.92"/><circle cx="131" cy="135" r="4" fill="#D9AE3E"/><circle cx="113" cy="102" r="12" fill="#D9AE3E" opacity="0.92"/><circle cx="113" cy="102" r="4" fill="#D9AE3E"/><circle cx="166" cy="175" r="8" fill="#D9AE3E" opacity="0.92"/><circle cx="166" cy="175" r="3" fill="#D9AE3E"/><circle cx="140" cy="113" r="10" fill="#D9AE3E" opacity="0.92"/><circle cx="140" cy="113" r="3" fill="#D9AE3E"/><circle cx="89" cy="83" r="10" fill="#D9AE3E" opacity="0.92"/><circle cx="89" cy="83" r="4" fill="#D9AE3E"/><circle cx="185" cy="185" r="11" fill="#D9AE3E" opacity="0.92"/><circle cx="185" cy="185" r="4" fill="#D9AE3E"/><path d="M24,759.36 Q320.0,745.36 616,759.36" stroke="#D9AE3E" stroke-width="2" fill="none" opacity="0.25"/><path d="M24,726.4200000000001 Q327.1735609089952,712.4200000000001 616,726.4200000000001" stroke="#D9AE3E" stroke-width="2" fill="none" opacity="0.30"/><path d="M24,693.48 Q329.99573603041506,679.48 616,693.48" stroke="#D9AE3E" stroke-width="2" fill="none" opacity="0.35"/><path d="M24,660.54 Q326.7546318055115,646.54 616,660.54" stroke="#D9AE3E" stroke-width="2" fill="none" opacity="0.40"/><path d="M24,627.6 Q319.4162585657242,613.6 616,627.6" stroke="#D9AE3E" stroke-width="2" fill="none" opacity="0.45"/><path d="M24,594.6600000000001 Q312.43197504692074,580.6600000000001 616,594.6600000000001" stroke="#D9AE3E" stroke-width="2" fill="none" opacity="0.50"/><path d="M24,561.72 Q310.0383539116416,547.72 616,561.72" stroke="#D9AE3E" stroke-width="2" fill="none" opacity="0.55"/><path d="M24,528.78 Q313.68733362127676,514.78 616,528.78" stroke="#D9AE3E" stroke-width="2" fill="none" opacity="0.60"/><path d="M24,495.84000000000003 Q321.1654920485049,481.84000000000003 616,495.84000000000003" stroke="#D9AE3E" stroke-width="2" fill="none" opacity="0.65"/>
  <defs>
    <linearGradient id="sky-p03" x1="0" y1="0" x2="0" y2="1">
      <stop offset="0%" stop-color="#271A11"/>
      <stop offset="100%" stop-color="#1B120C"/>
    </linearGradient>
    <radialGradient id="glow-p03" cx="50%" cy="50%" r="50%">
      <stop offset="0%" stop-color="#EFCE7B" stop-opacity="0.95"/>
      <stop offset="60%" stop-color="#D9AE3E" stop-opacity="0.5"/>
      <stop offset="100%" stop-color="#D9AE3E" stop-opacity="0"/>
    </radialGradient>
    <linearGradient id="water-p03" x1="0" y1="0" x2="0" y2="1">
      <stop offset="0%" stop-color="#8A3A20" stop-opacity="0.15"/>
      <stop offset="100%" stop-color="#1B120C" stop-opacity="0.9"/>
    </linearGradient>
    <filter id="grain-p03">
      <feTurbulence type="fractalNoise" baseFrequency="0.9" numOctaves="2" result="n"/>
      <feColorMatrix in="n" type="matrix" values="0 0 0 0 0  0 0 0 0 0  0 0 0 0 0  0 0 0 0.05 0"/>
    </filter>
  </defs><rect x="34" y="720" width="572" height="46" fill="#1B120C" opacity="0.55"/>
    <text x="320.0" y="749" text-anchor="middle" fill="#EFCE7B" font-family="Georgia, 'Times New Roman', serif" font-size="17" letter-spacing="2">CHỢ QUÊ NGÀY TẾT</text>
  <g transform="translate(34,34) rotate(0)">
          <path d="M0,0 L26,0 M0,0 L0,26 M6,6 L18,6 M6,6 L6,18" stroke="#D9AE3E" stroke-width="2" fill="none" opacity="0.85"/>
        </g><g transform="translate(606,34) rotate(90)">
          <path d="M0,0 L26,0 M0,0 L0,26 M6,6 L18,6 M6,6 L6,18" stroke="#D9AE3E" stroke-width="2" fill="none" opacity="0.85"/>
        </g><g transform="translate(606,766) rotate(180)">
          <path d="M0,0 L26,0 M0,0 L0,26 M6,6 L18,6 M6,6 L6,18" stroke="#D9AE3E" stroke-width="2" fill="none" opacity="0.85"/>
        </g><g transform="translate(34,766) rotate(270)">
          <path d="M0,0 L26,0 M0,0 L0,26 M6,6 L18,6 M6,6 L6,18" stroke="#D9AE3E" stroke-width="2" fill="none" opacity="0.85"/>
        </g>
  <rect x="26" y="26" width="588" height="748" fill="none" stroke="#D9AE3E" stroke-width="2.5"/>
  <rect width="640" height="800" fill="url(#grain-p03)" opacity="0.5"/>
</svg>