<svg xmlns="http://www.w3.org/2000/svg" viewBox="0 0 640 800">
  <rect width="640" height="800" fill="#F2E8D5"/>
  <rect x="26" y="26" width="588" height="748" fill="#1B120C"/>
  <rect x="34" y="34" width="572" height="732" fill="url(#sky-p07)"/>
  <rect x="34" y="254" width="185" height="307" fill="#271A11" stroke="#D9AE3E" stroke-width="1"/><path d="M28,254 L126,180 L225,254" stroke="#B5502F" stroke-width="4" fill="none"/><rect x="225" y="254" width="185" height="307" fill="#271A11" stroke="#D9AE3E" stroke-width="1"/><path d="M219,254 L317,180 L415,254" stroke="#B5502F" stroke-width="4" fill="none"/><rect x="415" y="254" width="185" height="307" fill="#271A11" stroke="#D9AE3E" stroke-width="1"/><path d="M409,254 L508,180 L606,254" stroke="#B5502F" stroke-width="4" fill="none"/><g>
      <line x1="52.0" y1="174.23999999999998" x2="52.0" y2="182.04" stroke="#D9AE3E" stroke-width="1.4"/>
      <ellipse cx="52.0" cy="195.04" rx="8.06" ry="13" fill="#B5502F" opacity="0.92"/>
      <line x1="43.94" y1="189.84" x2="60.06" y2="189.84" stroke="#D9AE3E" stroke-width="1"/>
      <line x1="43.94" y1="200.23999999999998" x2="60.06" y2="200.23999999999998" stroke="#D9AE3E" stroke-width="1"/>
      <line x1="52.0" y1="208.04" x2="52.0" y2="222.04" stroke="#D9AE3E" stroke-width="1.4"/>
    </g><g>
      <line x1="159.2" y1="174.23999999999998" x2="159.2" y2="182.04" stroke="#D9AE3E" stroke-width="1.4"/>
      <ellipse cx="159.2" cy="195.04" rx="8.06" ry="13" fill="#D9AE3E" opacity="0.92"/>
      <line x1="151.14" y1="189.84" x2="167.26" y2="189.84" stroke="#D9AE3E" stroke-width="1"/>
      <line x1="151.14" y1="200.23999999999998" x2="167.26" y2="200.23999999999998" stroke="#D9AE3E" stroke-width="1"/>
      <line x1="159.2" y1="208.04" x2="159.2" y2="222.04" stroke="#D9AE3E" stroke-width="1.4"/>
    </g><g>
      <line x1="266.4" y1="174.23999999999998" x2="266.4" y2="182.04" stroke="#D9AE3E" stroke-width="1.4"/>
      <ellipse cx="266.4" cy="195.04" rx="8.06" ry="13" fill="#B5502F" opacity="0.92"/>
      <line x1="258.34" y1="189.84" x2="274.46" y2="189.84" stroke="#D9AE3E" stroke-width="1"/>
      <line x1="258.34" y1="200.23999999999998" x2="274.46" y2="200.23999999999998" stroke="#D9AE3E" stroke-width="1"/>
      <line x1="266.4" y1="208.04" x2="266.4" y2="222.04" stroke="#D9AE3E" stroke-width="1.4"/>
    </g><g>
      <line x1="373.6" y1="174.23999999999998" x2="373.6" y2="182.04" stroke="#D9AE3E" stroke-width="1.4"/>
      <ellipse cx="373.6" cy="195.04" rx="8.06" ry="13" fill="#D9AE3E" opacity="0.92"/>
      <line x1="365.54" y1="189.84" x2="381.66" y2="189.84" stroke="#D9AE3E" stroke-width="1"/>
      <line x1="365.54" y1="200.23999999999998" x2="381.66" y2="200.23999999999998" stroke="#D9AE3E" stroke-width="1"/>
      <line x1="373.6" y1="208.04" x2="373.6" y2="222.04" stroke="#D9AE3E" stroke-width="1.4"/>
    </g><g>
      <line x1="480.8" y1="174.23999999999998" x2="480.8" y2="182.04" stroke="#D9AE3E" stroke-width="1.4"/>
      <ellipse cx="480.8" cy="195.04" rx="8.06" ry="13" fill="#B5502F" opacity="0.92"/>
      <line x1="472.74" y1="189.84" x2="488.86" y2="189.84" stroke="#D9AE3E" stroke-width="1"/>
      <line x1="472.74" y1="200.23999999999998" x2="488.86" y2="200.23999999999998" stroke="#D9AE3E" stroke-width="1"/>
      <line x1="480.8" y1="208.04" x2="480.8" y2="222.04" stroke="#D9AE3E" stroke-width="1.4"/>
    </g><g>
      <line x1="588.0" y1="174.23999999999998" x2="588.0" y2="182.04" stroke="#D9AE3E" stroke-width="1.4"/>
      <ellipse cx="588.0" cy="195.04" rx="8.06" ry="13" fill="#D9AE3E" opacity="0.92"/>
      <line x1="579.94" y1="189.84" x2="596.06" y2="189.84" stroke="#D9AE3E" stroke-width="1"/>
      <line x1="579.94" y1="200.23999999999998" x2="596.06" y2="200.23999999999998" stroke="#D9AE3E" stroke-width="1"/>
      <line x1="588.0" y1="208.04" x2="588.0" y2="222.04" stroke="#D9AE3E" stroke-width="1.4"/>
    </g><rect x="34" y="575.68" width="572" height="190.32000000000005" fill="url(#water-p07)"/><path d="M34,589.68 Q-14,590 34,594 Q101,590 148,586 Q215,590 263,594 Q330,590 377,586 Q444,590 492,594 Q558,590 606,586 " stroke="#D9AE3E" stroke-width="1" fill="none" opacity="0.18"/><path d="M34,632.26 Q-14,632 34,637 Q101,632 148,628 Q215,632 263,637 Q330,632 377,628 Q444,632 492,637 Q558,632 606,628 " stroke="#D9AE3E" stroke-width="1" fill="none" opacity="0.19999999999999998"/><path d="M34,674.8399999999999 Q-14,675 34,680 Q101,675 148,670 Q215,675 263,680 Q330,675 377,670 Q444,675 492,680 Q558,675 606,670 " stroke="#D9AE3E" stroke-width="1" fill="none" opacity="0.22"/><path d="M34,717.42 Q-14,717 34,723 Q101,717 148,712 Q215,717 263,723 Q330,717 377,712 Q444,717 492,723 Q558,717 606,712 " stroke="#D9AE3E" stroke-width="1" fill="none" opacity="0.24"/>
  <defs>
    <linearGradient id="sky-p07" x1="0" y1="0" x2="0" y2="1">
      <stop offset="0%" stop-color="#271A11"/>
      <stop offset="100%" stop-color="#1B120C"/>
    </linearGradient>
    <radialGradient id="glow-p07" cx="50%" cy="50%" r="50%">
      <stop offset="0%" stop-color="#EFCE7B" stop-opacity="0.95"/>
      <stop offset="60%" stop-color="#D9AE3E" stop-opacity="0.5"/>
      <stop offset="100%" stop-color="#D9AE3E" stop-opacity="0"/>
    </radialGradient>
    <linearGradient id="water-p07" x1="0" y1="0" x2="0" y2="1">
      <stop offset="0%" stop-color="#8A3A20" stop-opacity="0.15"/>
      <stop offset="100%" stop-color="#1B120C" stop-opacity="0.9"/>
    </linearGradient>
    <filter id="grain-p07">
      <feTurbulence type="fractalNoise" baseFrequency="0.9" numOctaves="2" result="n"/>
      <feColorMatrix in="n" type="matrix" values="0 0 0 0 0  0 0 0 0 0  0 0 0 0 0  0 0 0 0.05 0"/>
    </filter>
  </defs><rect x="34" y="720" width="572" height="46" fill="#1B120C" opacity="0.55"/>
    <text x="320.0" y="749" text-anchor="middle" fill="#EFCE7B" font-family="Georgia, 'Times New Roman', serif" font-size="17" letter-spacing="2">PHỐ CỔ HỘI AN</text>
  <g transform="translate(34,34) rotate(0)">
          <path d="M0,0 L26,0 M0,0 L0,26 M6,6 L18,6 M6,6 L6,18" stroke="#D9AE3E" stroke-width="2" fill="none" opacity="0.85"/>
        </g><g transform="translate(606,34) rotate(90)">
          <path d="M0,0 L26,0 M0,0 L0,26 M6,6 L18,6 M6,6 L6,18" stroke="#D9AE3E" stroke-width="2" fill="none" opacity="0.85"/>
        </g><g transform="translate(606,766) rotate(180)">
          <path d="M0,0 L26,0 M0,0 L0,26 M6,6 L18,6 M6,6 L6,18" stroke="#D9AE3E" stroke-width="2" fill="none" opacity="0.85"/>
        </g><g transform="translate(34,766) rotate(270)">
          <path d="M0,0 L26,0 M0,0 L0,26 M6,6 L18,6 M6,6 L6,18" stroke="#D9AE3E" stroke-width="2" fill="none" opacity="0.85"/>
        </g>
  <rect x="26" y="26" width="588" height="748" fill="none" stroke="#D9AE3E" stroke-width="2.5"/>
  <rect width="640" height="800" fill="url(#grain-p07)" opacity="0.5"/>
</svg>