<svg xmlns="http://www.w3.org/2000/svg" viewBox="0 0 640 800">
  <rect width="640" height="800" fill="#EDE3CC"/>
  <rect x="26" y="26" width="588" height="748" fill="#10151C"/>
  <rect x="34" y="34" width="572" height="732" fill="url(#sky-p02)"/>
  <circle cx="480.16" cy="195.04" r="74.80000000000001" fill="url(#glow-p02)"/><circle cx="480.16" cy="195.04" r="34" fill="#E6C766"/><polygon points="34,487.84 34,432 148,379 263,453 377,420 492,390 606,349 606,487.84" fill="#33506B" opacity="0.55"/><polygon points="34,487.84 34,406 148,443 263,503 377,420 492,398 606,415 606,487.84" fill="#213548" opacity="0.75"/><polygon points="34,487.84 34,431 148,464 263,492 377,429 492,443 606,457 606,487.84" fill="#182230" opacity="0.95"/><rect x="34" y="487.84" width="572" height="278.16" fill="url(#water-p02)"/><path d="M34,501.84 Q-14,502 34,506 Q101,502 148,498 Q215,502 263,506 Q330,502 377,498 Q444,502 492,506 Q558,502 606,498 " stroke="#C9A227" stroke-width="1" fill="none" opacity="0.18"/><path d="M34,544.8666666666667 Q-14,545 34,549 Q101,545 148,540 Q215,545 263,549 Q330,545 377,540 Q444,545 492,549 Q558,545 606,540 " stroke="#C9A227" stroke-width="1" fill="none" opacity="0.19999999999999998"/><path d="M34,587.8933333333333 Q-14,588 34,593 Q101,588 148,583 Q215,588 263,593 Q330,588 377,583 Q444,588 492,593 Q558,588 606,583 " stroke="#C9A227" stroke-width="1" fill="none" opacity="0.22"/><path d="M34,630.92 Q-14,631 34,637 Q101,631 148,625 Q215,631 263,637 Q330,631 377,625 Q444,631 492,637 Q558,631 606,625 " stroke="#C9A227" stroke-width="1" fill="none" opacity="0.24"/><path d="M34,673.9466666666667 Q-14,674 34,680 Q101,674 148,668 Q215,674 263,680 Q330,674 377,668 Q444,674 492,680 Q558,674 606,668 " stroke="#C9A227" stroke-width="1" fill="none" opacity="0.26"/><path d="M34,716.9733333333334 Q-14,717 34,724 Q101,717 148,710 Q215,717 263,724 Q330,717 377,710 Q444,717 492,724 Q558,717 606,710 " stroke="#C9A227" stroke-width="1" fill="none" opacity="0.28"/><path d="M175.6,604.96 Q205.6,615.46 235.6,604.96 L226.6,600.96 L184.6,600.96 Z" fill="#182230"/>
      <line x1="205.6" y1="604.96" x2="205.6" y2="577.96" stroke="#C9A227" stroke-width="2"/>
      <path d="M205.6,577.96 L220.6,588.46 L205.6,595.96 Z" fill="#E6C766" opacity="0.85"/><path d="M366.64,656.1999999999999 Q388.64,663.9 410.64,656.1999999999999 L404.03999999999996,652.1999999999999 L373.24,652.1999999999999 Z" fill="#33506B"/>
      <line x1="388.64" y1="656.1999999999999" x2="388.64" y2="636.4" stroke="#C9A227" stroke-width="2"/>
      <path d="M388.64,636.4 L399.64,644.0999999999999 L388.64,649.5999999999999 Z" fill="#E6C766" opacity="0.85"/>
  <defs>
    <linearGradient id="sky-p02" x1="0" y1="0" x2="0" y2="1">
      <stop offset="0%" stop-color="#182230"/>
      <stop offset="100%" stop-color="#10151C"/>
    </linearGradient>
    <radialGradient id="glow-p02" cx="50%" cy="50%" r="50%">
      <stop offset="0%" stop-color="#E6C766" stop-opacity="0.95"/>
      <stop offset="60%" stop-color="#C9A227" stop-opacity="0.5"/>
      <stop offset="100%" stop-color="#C9A227" stop-opacity="0"/>
    </radialGradient>
    <linearGradient id="water-p02" x1="0" y1="0" x2="0" y2="1">
      <stop offset="0%" stop-color="#213548" stop-opacity="0.15"/>
      <stop offset="100%" stop-color="#10151C" stop-opacity="0.9"/>
    </linearGradient>
    <filter id="grain-p02">
      <feTurbulence type="fractalNoise" baseFrequency="0.9" numOctaves="2" result="n"/>
      <feColorMatrix in="n" type="matrix" values="0 0 0 0 0  0 0 0 0 0  0 0 0 0 0  0 0 0 0.05 0"/>
    </filter>
  </defs><rect x="34" y="720" width="572" height="46" fill="#10151C" opacity="0.55"/>
    <text x="320.0" y="749" text-anchor="middle" fill="#E6C766" font-family="Georgia, 'Times New Roman', serif" font-size="17" letter-spacing="2">VỊNH HẠ LONG LÚC BÌNH MINH</text>
  <g transform="translate(34,34) rotate(0)">
          <path d="M0,0 L26,0 M0,0 L0,26 M6,6 L18,6 M6,6 L6,18" stroke="#C9A227" stroke-width="2" fill="none" opacity="0.85"/>
        </g><g transform="translate(606,34) rotate(90)">
          <path d="M0,0 L26,0 M0,0 L0,26 M6,6 L18,6 M6,6 L6,18" stroke="#C9A227" stroke-width="2" fill="none" opacity="0.85"/>
        </g><g transform="translate(606,766) rotate(180)">
          <path d="M0,0 L26,0 M0,0 L0,26 M6,6 L18,6 M6,6 L6,18" stroke="#C9A227" stroke-width="2" fill="none" opacity="0.85"/>
        </g><g transform="translate(34,766) rotate(270)">
          <path d="M0,0 L26,0 M0,0 L0,26 M6,6 L18,6 M6,6 L6,18" stroke="#C9A227" stroke-width="2" fill="none" opacity="0.85"/>
        </g>
  <rect x="26" y="26" width="588" height="748" fill="none" stroke="#C9A227" stroke-width="2.5"/>
  <rect width="640" height="800" fill="url(#grain-p02)" opacity="0.5"/>
</svg>