<svg xmlns="http://www.w3.org/2000/svg" viewBox="0 0 640 800">
  <rect width="640" height="800" fill="#EDE3CC"/>
  <rect x="26" y="26" width="588" height="748" fill="#0F1714"/>
  <rect x="34" y="34" width="572" height="732" fill="url(#sky-p04)"/>
  <rect x="34" y="290.2" width="572" height="475.8" fill="url(#water-p04)"/><path d="M34,304.2 Q-14,304 34,308 Q101,304 148,300 Q215,304 263,308 Q330,304 377,300 Q444,304 492,308 Q558,304 606,300 " stroke="#C9A227" stroke-width="1" fill="none" opacity="0.18"/><path d="M34,380.16666666666663 Q-14,380 34,385 Q101,380 148,376 Q215,380 263,385 Q330,380 377,376 Q444,380 492,385 Q558,380 606,376 " stroke="#C9A227" stroke-width="1" fill="none" opacity="0.19999999999999998"/><path d="M34,456.1333333333333 Q-14,456 34,461 Q101,456 148,451 Q215,456 263,461 Q330,456 377,451 Q444,456 492,461 Q558,456 606,451 " stroke="#C9A227" stroke-width="1" fill="none" opacity="0.22"/><path d="M34,532.1 Q-14,532 34,538 Q101,532 148,526 Q215,532 263,538 Q330,532 377,526 Q444,532 492,538 Q558,532 606,526 " stroke="#C9A227" stroke-width="1" fill="none" opacity="0.24"/><path d="M34,608.0666666666666 Q-14,608 34,614 Q101,608 148,602 Q215,608 263,614 Q330,608 377,602 Q444,608 492,614 Q558,608 606,602 " stroke="#C9A227" stroke-width="1" fill="none" opacity="0.26"/><path d="M34,684.0333333333333 Q-14,684 34,691 Q101,684 148,677 Q215,684 263,691 Q330,684 377,677 Q444,684 492,691 Q558,684 606,677 " stroke="#C9A227" stroke-width="1" fill="none" opacity="0.28"/><g><path d="M148.4,363.40000000000003 Q127,325 90,337 Q127,383 148.4,363.40000000000003" fill="#3E5D50" opacity="0.85"/><path d="M148.4,363.40000000000003 Q132,318 104,318 Q132,376 148.4,363.40000000000003" fill="#3E5D50" opacity="0.85"/><path d="M148.4,363.40000000000003 Q140,313 125,304 Q140,371 148.4,363.40000000000003" fill="#3E5D50" opacity="0.85"/><path d="M148.4,363.40000000000003 Q148,311 148,300 Q148,369 148.4,363.40000000000003" fill="#3E5D50" opacity="0.85"/><path d="M148.4,363.40000000000003 Q157,313 172,304 Q157,371 148.4,363.40000000000003" fill="#3E5D50" opacity="0.85"/><path d="M148.4,363.40000000000003 Q165,318 193,318 Q165,376 148.4,363.40000000000003" fill="#3E5D50" opacity="0.85"/><path d="M148.4,363.40000000000003 Q170,325 207,337 Q170,383 148.4,363.40000000000003" fill="#3E5D50" opacity="0.85"/><circle cx="148.4" cy="363.40000000000003" r="16.240000000000002" fill="#C9A227"/></g><path d="M148.4,421.40000000000003 C138.4,461.40000000000003 158.4,491.40000000000003 148.4,531.4000000000001" stroke="#3E5D50" stroke-width="3" fill="none" opacity="0.7"/><g><path d="M320.0,487.84 Q293,439 246,455 Q293,513 320.0,487.84" fill="#3E5D50" opacity="0.85"/><path d="M320.0,487.84 Q299,430 263,429 Q299,504 320.0,487.84" fill="#3E5D50" opacity="0.85"/><path d="M320.0,487.84 Q309,423 290,412 Q309,497 320.0,487.84" fill="#3E5D50" opacity="0.85"/><path d="M320.0,487.84 Q320,421 320,406 Q320,495 320.0,487.84" fill="#3E5D50" opacity="0.85"/><path d="M320.0,487.84 Q331,423 350,412 Q331,497 320.0,487.84" fill="#3E5D50" opacity="0.85"/><path d="M320.0,487.84 Q341,430 377,429 Q341,504 320.0,487.84" fill="#3E5D50" opacity="0.85"/><path d="M320.0,487.84 Q347,439 394,455 Q347,513 320.0,487.84" fill="#3E5D50" opacity="0.85"/><circle cx="320.0" cy="487.84" r="20.720000000000002" fill="#C9A227"/></g><path d="M320.0,561.8399999999999 C310.0,601.8399999999999 330.0,631.8399999999999 320.0,671.8399999999999" stroke="#3E5D50" stroke-width="3" fill="none" opacity="0.7"/><g><path d="M480.16,326.8 Q464,298 436,307 Q464,342 480.16,326.8" fill="#3E5D50" opacity="0.85"/><path d="M480.16,326.8 Q468,292 447,292 Q468,336 480.16,326.8" fill="#3E5D50" opacity="0.85"/><path d="M480.16,326.8 Q474,288 462,282 Q474,332 480.16,326.8" fill="#3E5D50" opacity="0.85"/><path d="M480.16,326.8 Q480,287 480,278 Q480,331 480.16,326.8" fill="#3E5D50" opacity="0.85"/><path d="M480.16,326.8 Q487,288 498,282 Q487,332 480.16,326.8" fill="#3E5D50" opacity="0.85"/><path d="M480.16,326.8 Q492,292 514,292 Q492,336 480.16,326.8" fill="#3E5D50" opacity="0.85"/><path d="M480.16,326.8 Q496,298 524,307 Q496,342 480.16,326.8" fill="#3E5D50" opacity="0.85"/><circle cx="480.16" cy="326.8" r="12.32" fill="#C9A227"/></g><path d="M480.16,370.8 C470.16,410.8 490.16,440.8 480.16,480.8" stroke="#3E5D50" stroke-width="3" fill="none" opacity="0.7"/><g><path d="M234.2,634.24 Q220,608 194,616 Q220,648 234.2,634.24" fill="#3E5D50" opacity="0.85"/><path d="M234.2,634.24 Q223,603 204,603 Q223,643 234.2,634.24" fill="#3E5D50" opacity="0.85"/><path d="M234.2,634.24 Q228,599 218,593 Q228,639 234.2,634.24" fill="#3E5D50" opacity="0.85"/><path d="M234.2,634.24 Q234,598 234,590 Q234,638 234.2,634.24" fill="#3E5D50" opacity="0.85"/><path d="M234.2,634.24 Q240,599 251,593 Q240,639 234.2,634.24" fill="#3E5D50" opacity="0.85"/><path d="M234.2,634.24 Q245,603 265,603 Q245,643 234.2,634.24" fill="#3E5D50" opacity="0.85"/><path d="M234.2,634.24 Q249,608 274,616 Q249,648 234.2,634.24" fill="#3E5D50" opacity="0.85"/><circle cx="234.2" cy="634.24" r="11.200000000000001" fill="#C9A227"/></g><path d="M234.2,674.24 C224.2,714.24 244.2,744.24 234.2,784.24" stroke="#3E5D50" stroke-width="3" fill="none" opacity="0.7"/><g><path d="M422.96000000000004,656.1999999999999 Q412,636 393,643 Q412,666 422.96000000000004,656.1999999999999" fill="#3E5D50" opacity="0.85"/><path d="M422.96000000000004,656.1999999999999 Q415,633 400,632 Q415,663 422.96000000000004,656.1999999999999" fill="#3E5D50" opacity="0.85"/><path d="M422.96000000000004,656.1999999999999 Q418,630 411,626 Q418,660 422.96000000000004,656.1999999999999" fill="#3E5D50" opacity="0.85"/><path d="M422.96000000000004,656.1999999999999 Q423,629 423,623 Q423,659 422.96000000000004,656.1999999999999" fill="#3E5D50" opacity="0.85"/><path d="M422.96000000000004,656.1999999999999 Q427,630 435,626 Q427,660 422.96000000000004,656.1999999999999" fill="#3E5D50" opacity="0.85"/><path d="M422.96000000000004,656.1999999999999 Q431,633 446,632 Q431,663 422.96000000000004,656.1999999999999" fill="#3E5D50" opacity="0.85"/><path d="M422.96000000000004,656.1999999999999 Q434,636 453,643 Q434,666 422.96000000000004,656.1999999999999" fill="#3E5D50" opacity="0.85"/><circle cx="422.96000000000004" cy="656.1999999999999" r="8.4" fill="#C9A227"/></g><path d="M422.96000000000004,686.1999999999999 C412.96000000000004,726.1999999999999 432.96000000000004,756.1999999999999 422.96000000000004,796.1999999999999" stroke="#3E5D50" stroke-width="3" fill="none" opacity="0.7"/>
  <defs>
    <linearGradient id="sky-p04" x1="0" y1="0" x2="0" y2="1">
      <stop offset="0%" stop-color="#182420"/>
      <stop offset="100%" stop-color="#0F1714"/>
    </linearGradient>
    <radialGradient id="glow-p04" cx="50%" cy="50%" r="50%">
      <stop offset="0%" stop-color="#E6C766" stop-opacity="0.95"/>
      <stop offset="60%" stop-color="#C9A227" stop-opacity="0.5"/>
      <stop offset="100%" stop-color="#C9A227" stop-opacity="0"/>
    </radialGradient>
    <linearGradient id="water-p04" x1="0" y1="0" x2="0" y2="1">
      <stop offset="0%" stop-color="#28433A" stop-opacity="0.15"/>
      <stop offset="100%" stop-color="#0F1714" stop-opacity="0.9"/>
    </linearGradient>
    <filter id="grain-p04">
      <feTurbulence type="fractalNoise" baseFrequency="0.9" numOctaves="2" result="n"/>
      <feColorMatrix in="n" type="matrix" values="0 0 0 0 0  0 0 0 0 0  0 0 0 0 0  0 0 0 0.05 0"/>
    </filter>
  </defs><rect x="34" y="720" width="572" height="46" fill="#0F1714" opacity="0.55"/>
    <text x="320.0" y="749" text-anchor="middle" fill="#E6C766" font-family="Georgia, 'Times New Roman', serif" font-size="17" letter-spacing="2">ĐẦM SEN MÙA HẠ</text>
  <g transform="translate(34,34) rotate(0)">
          <path d="M0,0 L26,0 M0,0 L0,26 M6,6 L18,6 M6,6 L6,18" stroke="#C9A227" stroke-width="2" fill="none" opacity="0.85"/>
        </g><g transform="translate(606,34) rotate(90)">
          <path d="M0,0 L26,0 M0,0 L0,26 M6,6 L18,6 M6,6 L6,18" stroke="#C9A227" stroke-width="2" fill="none" opacity="0.85"/>
        </g><g transform="translate(606,766) rotate(180)">
          <path d="M0,0 L26,0 M0,0 L0,26 M6,6 L18,6 M6,6 L6,18" stroke="#C9A227" stroke-width="2" fill="none" opacity="0.85"/>
        </g><g transform="translate(34,766) rotate(270)">
          <path d="M0,0 L26,0 M0,0 L0,26 M6,6 L18,6 M6,6 L6,18" stroke="#C9A227" stroke-width="2" fill="none" opacity="0.85"/>
        </g>
  <rect x="26" y="26" width="588" height="748" fill="none" stroke="#C9A227" stroke-width="2.5"/>
  <rect width="640" height="800" fill="url(#grain-p04)" opacity="0.5"/>
</svg>