<svg xmlns="http://www.w3.org/2000/svg" viewBox="0 0 640 800">
  <rect width="640" height="800" fill="#EDE3CC"/>
  <rect x="26" y="26" width="588" height="748" fill="#10151C"/>
  <rect x="34" y="34" width="572" height="732" fill="url(#sky-p10)"/>
  <circle cx="171.28" cy="195.04" r="79.2" fill="url(#glow-p10)"/><circle cx="171.28" cy="195.04" r="36" fill="#E6C766"/><rect x="34" y="436.6" width="572" height="329.4" fill="url(#water-p10)"/><path d="M34,450.6 Q-14,451 34,455 Q101,451 148,447 Q215,451 263,455 Q330,451 377,447 Q444,451 492,455 Q558,451 606,447 " stroke="#C9A227" stroke-width="1" fill="none" opacity="0.18"/><path d="M34,489.27500000000003 Q-14,489 34,494 Q101,489 148,485 Q215,489 263,494 Q330,489 377,485 Q444,489 492,494 Q558,489 606,485 " stroke="#C9A227" stroke-width="1" fill="none" opacity="0.19999999999999998"/><path d="M34,527.95 Q-14,528 34,533 Q101,528 148,523 Q215,528 263,533 Q330,528 377,523 Q444,528 492,533 Q558,528 606,523 " stroke="#C9A227" stroke-width="1" fill="none" opacity="0.22"/><path d="M34,566.625 Q-14,567 34,572 Q101,567 148,561 Q215,567 263,572 Q330,567 377,561 Q444,567 492,572 Q558,567 606,561 " stroke="#C9A227" stroke-width="1" fill="none" opacity="0.24"/><path d="M34,605.3 Q-14,605 34,612 Q101,605 148,599 Q215,605 263,612 Q330,605 377,599 Q444,605 492,612 Q558,605 606,599 " stroke="#C9A227" stroke-width="1" fill="none" opacity="0.26"/><path d="M34,643.975 Q-14,644 34,651 Q101,644 148,637 Q215,644 263,651 Q330,644 377,637 Q444,644 492,651 Q558,644 606,637 " stroke="#C9A227" stroke-width="1" fill="none" opacity="0.28"/><path d="M34,682.65 Q-14,683 34,690 Q101,683 148,675 Q215,683 263,690 Q330,683 377,675 Q444,683 492,690 Q558,683 606,675 " stroke="#C9A227" stroke-width="1" fill="none" opacity="0.3"/><path d="M34,721.325 Q-14,721 34,730 Q101,721 148,713 Q215,721 263,730 Q330,721 377,713 Q444,721 492,730 Q558,721 606,713 " stroke="#C9A227" stroke-width="1" fill="none" opacity="0.32"/><path d="M306.6,531.76 Q348.6,546.46 390.6,531.76 L378.0,527.76 L319.20000000000005,527.76 Z" fill="#182230"/>
      <line x1="348.6" y1="531.76" x2="348.6" y2="493.96" stroke="#C9A227" stroke-width="2"/>
      <path d="M348.6,493.96 L369.6,508.65999999999997 L348.6,519.16 Z" fill="#E6C766" opacity="0.85"/>
  <defs>
    <linearGradient id="sky-p10" x1="0" y1="0" x2="0" y2="1">
      <stop offset="0%" stop-color="#182230"/>
      <stop offset="100%" stop-color="#10151C"/>
    </linearGradient>
    <radialGradient id="glow-p10" cx="50%" cy="50%" r="50%">
      <stop offset="0%" stop-color="#E6C766" stop-opacity="0.95"/>
      <stop offset="60%" stop-color="#C9A227" stop-opacity="0.5"/>
      <stop offset="100%" stop-color="#C9A227" stop-opacity="0"/>
    </radialGradient>
    <linearGradient id="water-p10" x1="0" y1="0" x2="0" y2="1">
      <stop offset="0%" stop-color="#213548" stop-opacity="0.15"/>
      <stop offset="100%" stop-color="#10151C" stop-opacity="0.9"/>
    </linearGradient>
    <filter id="grain-p10">
      <feTurbulence type="fractalNoise" baseFrequency="0.9" numOctaves="2" result="n"/>
      <feColorMatrix in="n" type="matrix" values="0 0 0 0 0  0 0 0 0 0  0 0 0 0 0  0 0 0 0.05 0"/>
    </filter>
  </defs><rect x="34" y="720" width="572" height="46" fill="#10151C" opacity="0.55"/>
    <text x="320.0" y="749" text-anchor="middle" fill="#E6C766" font-family="Georgia, 'Times New Roman', serif" font-size="17" letter-spacing="2">THUYỀN VÀ BIỂN</text>
  <g transform="translate(34,34) rotate(0)">
          <path d="M0,0 L26,0 M0,0 L0,26 M6,6 L18,6 M6,6 L6,18" stroke="#C9A227" stroke-width="2" fill="none" opacity="0.85"/>
        </g><g transform="translate(606,34) rotate(90)">
          <path d="M0,0 L26,0 M0,0 L0,26 M6,6 L18,6 M6,6 L6,18" stroke="#C9A227" stroke-width="2" fill="none" opacity="0.85"/>
        </g><g transform="translate(606,766) rotate(180)">
          <path d="M0,0 L26,0 M0,0 L0,26 M6,6 L18,6 M6,6 L6,18" stroke="#C9A227" stroke-width="2" fill="none" opacity="0.85"/>
        </g><g transform="translate(34,766) rotate(270)">
          <path d="M0,0 L26,0 M0,0 L0,26 M6,6 L18,6 M6,6 L6,18" stroke="#C9A227" stroke-width="2" fill="none" opacity="0.85"/>
        </g>
  <rect x="26" y="26" width="588" height="748" fill="none" stroke="#C9A227" stroke-width="2.5"/>
  <rect width="640" height="800" fill="url(#grain-p10)" opacity="0.5"/>
</svg>