<svg xmlns="http://www.w3.org/2000/svg" viewBox="0 0 640 800">
  <rect width="640" height="800" fill="#F2E8D5"/>
  <rect x="26" y="26" width="588" height="748" fill="#1B120C"/>
  <rect x="34" y="34" width="572" height="732" fill="url(#sky-p12)"/>
  <path d="M91.2,692.8000000000001 C219.9,652.8000000000001 219.9,183.8 348.6,143.8" stroke="#B5502F" stroke-width="4" fill="none" opacity="0.9"/><circle cx="160" cy="536" r="12" fill="#D9AE3E" opacity="0.92"/><circle cx="160" cy="536" r="4" fill="#D9AE3E"/><circle cx="328" cy="158" r="8" fill="#D9AE3E" opacity="0.92"/><circle cx="328" cy="158" r="3" fill="#D9AE3E"/><circle cx="151" cy="567" r="9" fill="#D9AE3E" opacity="0.92"/><circle cx="151" cy="567" r="3" fill="#D9AE3E"/><circle cx="90" cy="687" r="10" fill="#D9AE3E" opacity="0.92"/><circle cx="90" cy="687" r="4" fill="#D9AE3E"/><circle cx="342" cy="170" r="11" fill="#D9AE3E" opacity="0.92"/><circle cx="342" cy="170" r="4" fill="#D9AE3E"/><circle cx="253" cy="333" r="12" fill="#D9AE3E" opacity="0.92"/><circle cx="253" cy="333" r="4" fill="#D9AE3E"/><circle cx="325" cy="210" r="9" fill="#D9AE3E" opacity="0.92"/><circle cx="325" cy="210" r="3" fill="#D9AE3E"/><circle cx="122" cy="624" r="7" fill="#D9AE3E" opacity="0.92"/><circle cx="122" cy="624" r="3" fill="#D9AE3E"/><circle cx="135" cy="574" r="7" fill="#D9AE3E" opacity="0.92"/><circle cx="135" cy="574" r="3" fill="#D9AE3E"/><circle cx="81" cy="682" r="9" fill="#D9AE3E" opacity="0.92"/><circle cx="81" cy="682" r="3" fill="#D9AE3E"/><circle cx="108" cy="682" r="8" fill="#D9AE3E" opacity="0.92"/><circle cx="108" cy="682" r="3" fill="#D9AE3E"/><circle cx="152" cy="551" r="8" fill="#D9AE3E" opacity="0.92"/><circle cx="152" cy="551" r="3" fill="#D9AE3E"/><circle cx="324" cy="226" r="10" fill="#D9AE3E" opacity="0.92"/><circle cx="324" cy="226" r="3" fill="#D9AE3E"/><circle cx="102" cy="641" r="9" fill="#D9AE3E" opacity="0.92"/><circle cx="102" cy="641" r="3" fill="#D9AE3E"/><circle cx="295" cy="224" r="13" fill="#D9AE3E" opacity="0.92"/><circle cx="295" cy="224" r="4" fill="#D9AE3E"/><circle cx="217" cy="404" r="7" fill="#D9AE3E" opacity="0.92"/><circle cx="217" cy="404" r="3" fill="#D9AE3E"/><circle cx="241" cy="413" r="11" fill="#D9AE3E" opacity="0.92"/><circle cx="241" cy="413" r="4" fill="#D9AE3E"/><circle cx="155" cy="540" r="12" fill="#D9AE3E" opacity="0.92"/><circle cx="155" cy="540" r="4" fill="#D9AE3E"/><circle cx="236" cy="396" r="8" fill="#D9AE3E" opacity="0.92"/><circle cx="236" cy="396" r="3" fill="#D9AE3E"/><circle cx="314" cy="257" r="12" fill="#D9AE3E" opacity="0.92"/><circle cx="314" cy="257" r="4" fill="#D9AE3E"/><circle cx="309" cy="236" r="10" fill="#D9AE3E" opacity="0.92"/><circle cx="309" cy="236" r="4" fill="#D9AE3E"/><circle cx="170" cy="484" r="9" fill="#D9AE3E" opacity="0.92"/><circle cx="170" cy="484" r="3" fill="#D9AE3E"/><path d="M520.2,656.1999999999999 C434.40000000000003,616.1999999999999 434.40000000000003,330.2 348.6,290.2" stroke="#B5502F" stroke-width="4" fill="none" opacity="0.9"/><circle cx="481" cy="574" r="10" fill="#D9AE3E" opacity="0.92"/><circle cx="481" cy="574" r="3" fill="#D9AE3E"/><circle cx="373" cy="326" r="9" fill="#D9AE3E" opacity="0.92"/><circle cx="373" cy="326" r="3" fill="#D9AE3E"/><circle cx="475" cy="567" r="8" fill="#D9AE3E" opacity="0.92"/><circle cx="475" cy="567" r="3" fill="#D9AE3E"/><circle cx="424" cy="437" r="10" fill="#D9AE3E" opacity="0.92"/><circle cx="424" cy="437" r="3" fill="#D9AE3E"/><circle cx="417" cy="406" r="11" fill="#D9AE3E" opacity="0.92"/><circle cx="417" cy="406" r="4" fill="#D9AE3E"/><circle cx="372" cy="330" r="10" fill="#D9AE3E" opacity="0.92"/><circle cx="372" cy="330" r="3" fill="#D9AE3E"/><circle cx="498" cy="586" r="12" fill="#D9AE3E" opacity="0.92"/><circle cx="498" cy="586" r="4" fill="#D9AE3E"/><circle cx="351" cy="298" r="13" fill="#D9AE3E" opacity="0.92"/><circle cx="351" cy="298" r="4" fill="#D9AE3E"/><circle cx="387" cy="380" r="8" fill="#D9AE3E" opacity="0.92"/><circle cx="387" cy="380" r="3" fill="#D9AE3E"/><circle cx="374" cy="315" r="12" fill="#D9AE3E" opacity="0.92"/><circle cx="374" cy="315" r="4" fill="#D9AE3E"/><circle cx="356" cy="293" r="10" fill="#D9AE3E" opacity="0.92"/><circle cx="356" cy="293" r="4" fill="#D9AE3E"/><circle cx="484" cy="621" r="11" fill="#D9AE3E" opacity="0.92"/><circle cx="484" cy="621" r="4" fill="#D9AE3E"/><circle cx="442" cy="462" r="12" fill="#D9AE3E" opacity="0.92"/><circle cx="442" cy="462" r="4" fill="#D9AE3E"/><circle cx="370" cy="347" r="9" fill="#D9AE3E" opacity="0.92"/><circle cx="370" cy="347" r="3" fill="#D9AE3E"/>
  <defs>
    <linearGradient id="sky-p12" x1="0" y1="0" x2="0" y2="1">
      <stop offset="0%" stop-color="#271A11"/>
      <stop offset="100%" stop-color="#1B120C"/>
    </linearGradient>
    <radialGradient id="glow-p12" cx="50%" cy="50%" r="50%">
      <stop offset="0%" stop-color="#EFCE7B" stop-opacity="0.95"/>
      <stop offset="60%" stop-color="#D9AE3E" stop-opacity="0.5"/>
      <stop offset="100%" stop-color="#D9AE3E" stop-opacity="0"/>
    </radialGradient>
    <linearGradient id="water-p12" x1="0" y1="0" x2="0" y2="1">
      <stop offset="0%" stop-color="#8A3A20" stop-opacity="0.15"/>
      <stop offset="100%" stop-color="#1B120C" stop-opacity="0.9"/>
    </linearGradient>
    <filter id="grain-p12">
      <feTurbulence type="fractalNoise" baseFrequency="0.9" numOctaves="2" result="n"/>
      <feColorMatrix in="n" type="matrix" values="0 0 0 0 0  0 0 0 0 0  0 0 0 0 0  0 0 0 0.05 0"/>
    </filter>
  </defs><rect x="34" y="720" width="572" height="46" fill="#1B120C" opacity="0.55"/>
    <text x="320.0" y="749" text-anchor="middle" fill="#EFCE7B" font-family="Georgia, 'Times New Roman', serif" font-size="17" letter-spacing="2">HOA MAI NGÀY XUÂN</text>
  <g transform="translate(34,34) rotate(0)">
          <path d="M0,0 L26,0 M0,0 L0,26 M6,6 L18,6 M6,6 L6,18" stroke="#D9AE3E" stroke-width="2" fill="none" opacity="0.85"/>
        </g><g transform="translate(606,34) rotate(90)">
          <path d="M0,0 L26,0 M0,0 L0,26 M6,6 L18,6 M6,6 L6,18" stroke="#D9AE3E" stroke-width="2" fill="none" opacity="0.85"/>
        </g><g transform="translate(606,766) rotate(180)">
          <path d="M0,0 L26,0 M0,0 L0,26 M6,6 L18,6 M6,6 L6,18" stroke="#D9AE3E" stroke-width="2" fill="none" opacity="0.85"/>
        </g><g transform="translate(34,766) rotate(270)">
          <path d="M0,0 L26,0 M0,0 L0,26 M6,6 L18,6 M6,6 L6,18" stroke="#D9AE3E" stroke-width="2" fill="none" opacity="0.85"/>
        </g>
  <rect x="26" y="26" width="588" height="748" fill="none" stroke="#D9AE3E" stroke-width="2.5"/>
  <rect width="640" height="800" fill="url(#grain-p12)" opacity="0.5"/>
</svg>